<svg width="231" height="68" viewBox="0 0 231 68" fill="none" xmlns="http://www.w3.org/2000/svg">
<path d="M14.5436 20.7456C14.5436 20.7456 31.8178 31.2389 35.0845 31.773C38.3512 32.3071 55.7765 30.2765 55.7765 30.2765M10.6835 64C21.753 62.8773 27.1136 60.9894 35.2937 55.5662C40.0005 56.9351 42.1802 56.9065 45.833 56.4482C51.417 54.9578 53.6269 52.9136 56.1517 47.408V26.5716C56.1517 26.5716 55.9857 23.5949 70.9398 25.0833C85.894 26.5716 42.3027 3.61466 38.6602 3.0341C35.0177 2.45355 -5.92527 9.42841 4.77921 13.0665C15.4837 16.7046 15.8152 18.689 15.8152 18.689C8.44833 34.5386 6.18774 42.5732 17.1947 50.0539C15.8611 56.3344 14.4244 59.3956 10.6835 64Z" stroke="url(#paint0_linear_2232_168)" stroke-width="5.94008"/>
<path d="M100.477 45.1334C99.8356 45.1334 99.3086 44.9386 98.8962 44.5491C98.4837 44.1366 98.2775 43.6326 98.2775 43.0368V23.1026H102.746V43.0368C102.746 43.6326 102.528 44.1366 102.093 44.5491C101.68 44.9386 101.142 45.1334 100.477 45.1334ZM92.8815 25.0273C92.2858 25.0273 91.7817 24.844 91.3693 24.4774C90.9797 24.1108 90.785 23.6296 90.785 23.0339C90.785 22.4381 90.9797 21.9684 91.3693 21.6247C91.7817 21.2581 92.2858 21.0748 92.8815 21.0748H108.142C108.737 21.0748 109.23 21.2581 109.619 21.6247C110.032 21.9913 110.238 22.4725 110.238 23.0682C110.238 23.664 110.032 24.1451 109.619 24.5117C109.23 24.8554 108.737 25.0273 108.142 25.0273H92.8815ZM115.286 45.4771C113.338 45.4771 111.642 45.0761 110.199 44.2741C108.778 43.4493 107.678 42.338 106.899 40.9403C106.143 39.5426 105.765 37.9616 105.765 36.1973C105.765 34.1352 106.178 32.3823 107.002 30.9388C107.85 29.4724 108.95 28.3497 110.302 27.5706C111.654 26.7916 113.086 26.4021 114.598 26.4021C115.767 26.4021 116.867 26.6426 117.898 27.1238C118.952 27.605 119.88 28.2695 120.682 29.1172C121.483 29.9421 122.114 30.9044 122.572 32.0043C123.053 33.1041 123.294 34.2726 123.294 35.5099C123.271 36.0598 123.053 36.5066 122.641 36.8503C122.228 37.194 121.747 37.3659 121.197 37.3659H108.068L107.037 33.9289H119.65L118.894 34.6163V33.6884C118.848 33.0239 118.608 32.4281 118.173 31.9012C117.76 31.3742 117.233 30.9617 116.592 30.6639C115.973 30.3431 115.308 30.1827 114.598 30.1827C113.911 30.1827 113.269 30.2743 112.673 30.4576C112.078 30.6409 111.562 30.9503 111.127 31.3856C110.691 31.821 110.348 32.4052 110.096 33.1385C109.844 33.8717 109.718 34.7996 109.718 35.9224C109.718 37.1597 109.97 38.2137 110.474 39.0844C111.001 39.9321 111.665 40.5851 112.467 41.0434C113.292 41.4788 114.163 41.6964 115.079 41.6964C115.927 41.6964 116.603 41.6277 117.107 41.4902C117.611 41.3527 118.012 41.1923 118.31 41.009C118.631 40.8028 118.917 40.631 119.169 40.4935C119.582 40.2873 119.971 40.1842 120.338 40.1842C120.842 40.1842 121.254 40.356 121.575 40.6997C121.919 41.0434 122.091 41.4444 122.091 41.9026C122.091 42.5213 121.77 43.0827 121.128 43.5867C120.533 44.0908 119.696 44.5376 118.619 44.9271C117.542 45.2938 116.431 45.4771 115.286 45.4771ZM133.805 26.4021C135.638 26.4021 136.99 26.8489 137.861 27.7425C138.732 28.6131 139.304 29.7473 139.579 31.145L138.995 30.8357L139.27 30.2858C139.545 29.7588 139.969 29.1974 140.542 28.6017C141.114 27.983 141.802 27.4675 142.604 27.0551C143.429 26.6197 144.345 26.4021 145.353 26.4021C147.003 26.4021 148.252 26.7572 149.1 27.4675C149.97 28.1778 150.566 29.1287 150.887 30.3202C151.208 31.4887 151.368 32.7948 151.368 34.2383V43.0368C151.368 43.6326 151.173 44.1366 150.784 44.5491C150.394 44.9386 149.902 45.1334 149.306 45.1334C148.71 45.1334 148.217 44.9386 147.828 44.5491C147.438 44.1366 147.244 43.6326 147.244 43.0368V34.2383C147.244 33.4821 147.152 32.8062 146.969 32.2105C146.785 31.5918 146.453 31.0992 145.972 30.7326C145.491 30.366 144.803 30.1827 143.91 30.1827C143.039 30.1827 142.294 30.366 141.676 30.7326C141.057 31.0992 140.587 31.5918 140.267 32.2105C139.969 32.8062 139.82 33.4821 139.82 34.2383V43.0368C139.82 43.6326 139.625 44.1366 139.236 44.5491C138.846 44.9386 138.353 45.1334 137.758 45.1334C137.162 45.1334 136.669 44.9386 136.28 44.5491C135.89 44.1366 135.696 43.6326 135.696 43.0368V34.2383C135.696 33.4821 135.604 32.8062 135.421 32.2105C135.237 31.5918 134.905 31.0992 134.424 30.7326C133.943 30.366 133.255 30.1827 132.362 30.1827C131.491 30.1827 130.746 30.366 130.128 30.7326C129.509 31.0992 129.039 31.5918 128.719 32.2105C128.421 32.8062 128.272 33.4821 128.272 34.2383V43.0368C128.272 43.6326 128.077 44.1366 127.687 44.5491C127.298 44.9386 126.805 45.1334 126.21 45.1334C125.614 45.1334 125.121 44.9386 124.732 44.5491C124.342 44.1366 124.147 43.6326 124.147 43.0368V28.8423C124.147 28.2465 124.342 27.7539 124.732 27.3644C125.121 26.952 125.614 26.7457 126.21 26.7457C126.805 26.7457 127.298 26.952 127.687 27.3644C128.077 27.7539 128.272 28.2465 128.272 28.8423V30.3202L127.756 30.2171C127.962 29.8275 128.249 29.4151 128.615 28.9798C128.982 28.5215 129.429 28.0976 129.956 27.7081C130.483 27.3186 131.067 27.0092 131.709 26.7801C132.35 26.5281 133.049 26.4021 133.805 26.4021ZM166.727 26.7457C167.323 26.7457 167.815 26.952 168.205 27.3644C168.594 27.7539 168.789 28.2465 168.789 28.8423V37.5721C168.789 40.0009 168.113 41.9256 166.761 43.3462C165.409 44.7668 163.462 45.4771 160.918 45.4771C158.375 45.4771 156.427 44.7668 155.076 43.3462C153.747 41.9256 153.082 40.0009 153.082 37.5721V28.8423C153.082 28.2465 153.277 27.7539 153.666 27.3644C154.056 26.952 154.549 26.7457 155.144 26.7457C155.74 26.7457 156.233 26.952 156.622 27.3644C157.012 27.7539 157.206 28.2465 157.206 28.8423V37.5721C157.206 38.9698 157.516 40.0123 158.134 40.6997C158.753 41.3642 159.681 41.6964 160.918 41.6964C162.179 41.6964 163.118 41.3642 163.737 40.6997C164.355 40.0123 164.665 38.9698 164.665 37.5721V28.8423C164.665 28.2465 164.859 27.7539 165.249 27.3644C165.638 26.952 166.131 26.7457 166.727 26.7457ZM193.392 26.4021C195.225 26.4021 196.577 26.8489 197.447 27.7425C198.318 28.6131 198.891 29.7473 199.166 31.145L198.582 30.8357L198.857 30.2858C199.131 29.7588 199.555 29.1974 200.128 28.6017C200.701 27.983 201.388 27.4675 202.19 27.0551C203.015 26.6197 203.932 26.4021 204.94 26.4021C206.59 26.4021 207.838 26.7572 208.686 27.4675C209.557 28.1778 210.153 29.1287 210.473 30.3202C210.794 31.4887 210.955 32.7948 210.955 34.2383V43.0368C210.955 43.6326 210.76 44.1366 210.37 44.5491C209.981 44.9386 209.488 45.1334 208.892 45.1334C208.297 45.1334 207.804 44.9386 207.415 44.5491C207.025 44.1366 206.83 43.6326 206.83 43.0368V34.2383C206.83 33.4821 206.739 32.8062 206.555 32.2105C206.372 31.5918 206.04 31.0992 205.559 30.7326C205.077 30.366 204.39 30.1827 203.496 30.1827C202.626 30.1827 201.881 30.366 201.262 30.7326C200.644 31.0992 200.174 31.5918 199.853 32.2105C199.555 32.8062 199.406 33.4821 199.406 34.2383V43.0368C199.406 43.6326 199.212 44.1366 198.822 44.5491C198.433 44.9386 197.94 45.1334 197.344 45.1334C196.749 45.1334 196.256 44.9386 195.866 44.5491C195.477 44.1366 195.282 43.6326 195.282 43.0368V34.2383C195.282 33.4821 195.19 32.8062 195.007 32.2105C194.824 31.5918 194.492 31.0992 194.01 30.7326C193.529 30.366 192.842 30.1827 191.948 30.1827C191.078 30.1827 190.333 30.366 189.714 30.7326C189.096 31.0992 188.626 31.5918 188.305 32.2105C188.007 32.8062 187.858 33.4821 187.858 34.2383V43.0368C187.858 43.6326 187.664 44.1366 187.274 44.5491C186.885 44.9386 186.392 45.1334 185.796 45.1334C185.2 45.1334 184.708 44.9386 184.318 44.5491C183.929 44.1366 183.734 43.6326 183.734 43.0368V28.8423C183.734 28.2465 183.929 27.7539 184.318 27.3644C184.708 26.952 185.2 26.7457 185.796 26.7457C186.392 26.7457 186.885 26.952 187.274 27.3644C187.664 27.7539 187.858 28.2465 187.858 28.8423V30.3202L187.343 30.2171C187.549 29.8275 187.835 29.4151 188.202 28.9798C188.569 28.5215 189.015 28.0976 189.542 27.7081C190.069 27.3186 190.654 27.0092 191.295 26.7801C191.937 26.5281 192.636 26.4021 193.392 26.4021ZM226.313 26.7457C226.909 26.7457 227.402 26.952 227.791 27.3644C228.181 27.7539 228.376 28.2465 228.376 28.8423V37.5721C228.376 40.0009 227.7 41.9256 226.348 43.3462C224.996 44.7668 223.048 45.4771 220.505 45.4771C217.962 45.4771 216.014 44.7668 214.662 43.3462C213.333 41.9256 212.669 40.0009 212.669 37.5721V28.8423C212.669 28.2465 212.863 27.7539 213.253 27.3644C213.643 26.952 214.135 26.7457 214.731 26.7457C215.327 26.7457 215.819 26.952 216.209 27.3644C216.598 27.7539 216.793 28.2465 216.793 28.8423V37.5721C216.793 38.9698 217.102 40.0123 217.721 40.6997C218.34 41.3642 219.268 41.6964 220.505 41.6964C221.765 41.6964 222.705 41.3642 223.323 40.6997C223.942 40.0123 224.251 38.9698 224.251 37.5721V28.8423C224.251 28.2465 224.446 27.7539 224.835 27.3644C225.225 26.952 225.718 26.7457 226.313 26.7457Z" fill="white"/>
<path d="M175.144 43.0368C175.144 43.6326 174.927 44.1366 174.491 44.5491C174.056 44.9386 173.552 45.1334 172.979 45.1334C172.338 45.1334 171.822 44.9386 171.432 44.5491C171.043 44.1366 170.848 43.6326 170.848 43.0368V23.1713C170.848 22.5756 171.054 22.083 171.467 21.6934C171.879 21.281 172.406 21.0748 173.048 21.0748C173.598 21.0748 174.079 21.281 174.491 21.6934C174.927 22.083 175.144 22.5756 175.144 23.1713V43.0368ZM181.688 43.0368C181.688 43.6326 181.482 44.1366 181.069 44.5491C180.68 44.9386 180.187 45.1334 179.591 45.1334C179.019 45.1334 178.537 44.9386 178.148 44.5491C177.758 44.1366 177.564 43.6326 177.564 43.0368V21.7966C177.564 21.2008 177.758 20.7082 178.148 20.3187C178.56 19.9062 179.064 19.7 179.66 19.7C180.256 19.7 180.737 19.9062 181.104 20.3187C181.493 20.7082 181.688 21.2008 181.688 21.7966V43.0368Z" fill="url(#paint1_linear_2232_168)"/>
<defs>
<linearGradient id="paint0_linear_2232_168" x1="38.5262" y1="3" x2="38.5262" y2="64" gradientUnits="userSpaceOnUse">
<stop stop-color="#FFFF02"/>
<stop offset="0.562501" stop-color="#F6C970"/>
</linearGradient>
<linearGradient id="paint1_linear_2232_168" x1="89.7539" y1="32.6334" x2="230.754" y2="32.6334" gradientUnits="userSpaceOnUse">
<stop stop-color="#FFFF02"/>
<stop offset="0.615387" stop-color="#F6C970"/>
</linearGradient>
</defs>
</svg>
