<svg width="808" height="153" viewBox="0 0 808 153" fill="none" xmlns="http://www.w3.org/2000/svg">
<path d="M56.9044 150C53.1409 150 50.0494 148.858 47.63 146.573C45.2106 144.153 44.0009 141.196 44.0009 137.701V20.7637H70.2111V137.701C70.2111 141.196 68.9342 144.153 66.3804 146.573C63.961 148.858 60.8023 150 56.9044 150ZM12.3471 32.0542C8.85243 32.0542 5.89539 30.9789 3.47598 28.8284C1.191 26.6778 0.0485008 23.8552 0.0485008 20.3605C0.0485008 16.8658 1.191 14.1104 3.47598 12.0942C5.89539 9.9436 8.85243 8.86831 12.3471 8.86831H101.865C105.36 8.86831 108.249 9.9436 110.534 12.0942C112.954 14.2448 114.164 17.0674 114.164 20.5621C114.164 24.0568 112.954 26.8794 110.534 29.03C108.249 31.0461 105.36 32.0542 101.865 32.0542H12.3471ZM143.773 152.016C132.348 152.016 122.401 149.664 113.934 144.96C105.6 140.121 99.1484 133.602 94.5784 125.403C90.1428 117.204 87.925 107.929 87.925 97.5797C87.925 85.4827 90.3444 75.2002 95.1832 66.7323C100.156 58.13 106.608 51.5438 114.538 46.9739C122.469 42.4039 130.869 40.1189 139.741 40.1189C146.595 40.1189 153.047 41.5302 159.096 44.3528C165.279 47.1755 170.722 51.0734 175.427 56.0466C180.131 60.8854 183.827 66.5307 186.516 72.9824C189.338 79.4342 190.75 86.2891 190.75 93.5473C190.615 96.7732 189.338 99.3942 186.919 101.41C184.499 103.427 181.677 104.435 178.451 104.435H101.433L95.3848 84.273H169.378L164.943 88.3053V82.8616C164.674 78.9637 163.262 75.469 160.709 72.3776C158.289 69.2861 155.198 66.8667 151.434 65.1194C147.805 63.2376 143.907 62.2967 139.741 62.2967C135.708 62.2967 131.945 62.8344 128.45 63.9097C124.955 64.985 121.931 66.7995 119.377 69.3533C116.823 71.9071 114.807 75.3346 113.329 79.6358C111.85 83.9369 111.111 89.3806 111.111 95.9667C111.111 103.225 112.589 109.408 115.547 114.515C118.638 119.489 122.536 123.319 127.24 126.008C132.079 128.561 137.187 129.838 142.563 129.838C147.536 129.838 151.501 129.435 154.459 128.629C157.416 127.822 159.768 126.881 161.515 125.806C163.397 124.596 165.077 123.588 166.556 122.782C168.975 121.572 171.26 120.967 173.411 120.967C176.368 120.967 178.787 121.975 180.669 123.991C182.685 126.008 183.693 128.36 183.693 131.048C183.693 134.677 181.811 137.97 178.048 140.927C174.553 143.884 169.647 146.505 163.33 148.79C157.012 150.941 150.493 152.016 143.773 152.016ZM252.413 40.1189C263.166 40.1189 271.096 42.7399 276.204 47.9819C281.311 53.0896 284.671 59.7429 286.284 67.942L282.857 66.1275L284.47 62.9016C286.083 59.8101 288.569 56.5171 291.93 53.0224C295.29 49.3933 299.322 46.369 304.027 43.9496C308.865 41.3958 314.242 40.1189 320.156 40.1189C329.834 40.1189 337.159 42.2023 342.132 46.369C347.24 50.5358 350.734 56.1138 352.616 63.1032C354.498 69.9582 355.439 77.6196 355.439 86.0875V137.701C355.439 141.196 354.296 144.153 352.011 146.573C349.726 148.858 346.837 150 343.342 150C339.847 150 336.957 148.858 334.672 146.573C332.387 144.153 331.245 141.196 331.245 137.701V86.0875C331.245 81.6519 330.707 77.6868 329.632 74.1921C328.557 70.563 326.608 67.6732 323.785 65.5226C320.962 63.372 316.93 62.2967 311.688 62.2967C306.58 62.2967 302.212 63.372 298.583 65.5226C294.954 67.6732 292.198 70.563 290.317 74.1921C288.569 77.6868 287.696 81.6519 287.696 86.0875V137.701C287.696 141.196 286.553 144.153 284.268 146.573C281.983 148.858 279.093 150 275.599 150C272.104 150 269.214 148.858 266.929 146.573C264.644 144.153 263.502 141.196 263.502 137.701V86.0875C263.502 81.6519 262.964 77.6868 261.889 74.1921C260.813 70.563 258.864 67.6732 256.042 65.5226C253.219 63.372 249.187 62.2967 243.945 62.2967C238.837 62.2967 234.469 63.372 230.84 65.5226C227.211 67.6732 224.455 70.563 222.573 74.1921C220.826 77.6868 219.952 81.6519 219.952 86.0875V137.701C219.952 141.196 218.81 144.153 216.525 146.573C214.24 148.858 211.35 150 207.855 150C204.361 150 201.471 148.858 199.186 146.573C196.901 144.153 195.758 141.196 195.758 137.701V54.4337C195.758 50.939 196.901 48.0492 199.186 45.7642C201.471 43.3448 204.361 42.1351 207.855 42.1351C211.35 42.1351 214.24 43.3448 216.525 45.7642C218.81 48.0492 219.952 50.939 219.952 54.4337V63.1032L216.928 62.4984C218.138 60.2134 219.818 57.794 221.969 55.2402C224.119 52.5519 226.74 50.0653 229.832 47.7803C232.923 45.4953 236.351 43.6808 240.114 42.3367C243.878 40.8582 247.977 40.1189 252.413 40.1189ZM445.536 42.1351C449.031 42.1351 451.921 43.3448 454.206 45.7642C456.491 48.0492 457.633 50.939 457.633 54.4337V105.644C457.633 119.892 453.668 131.182 445.738 139.516C437.808 147.849 426.383 152.016 411.463 152.016C396.543 152.016 385.119 147.849 377.188 139.516C369.392 131.182 365.494 119.892 365.494 105.644V54.4337C365.494 50.939 366.637 48.0492 368.922 45.7642C371.207 43.3448 374.097 42.1351 377.591 42.1351C381.086 42.1351 383.976 43.3448 386.261 45.7642C388.546 48.0492 389.688 50.939 389.688 54.4337V105.644C389.688 113.843 391.503 119.959 395.132 123.991C398.761 127.889 404.205 129.838 411.463 129.838C418.856 129.838 424.367 127.889 427.996 123.991C431.625 119.959 433.439 113.843 433.439 105.644V54.4337C433.439 50.939 434.582 48.0492 436.867 45.7642C439.152 43.3448 442.042 42.1351 445.536 42.1351ZM601.958 40.1189C612.711 40.1189 620.641 42.7399 625.749 47.9819C630.856 53.0896 634.216 59.7429 635.829 67.942L632.402 66.1275L634.015 62.9016C635.628 59.8101 638.114 56.5171 641.475 53.0224C644.835 49.3933 648.867 46.369 653.572 43.9496C658.41 41.3958 663.787 40.1189 669.701 40.1189C679.379 40.1189 686.704 42.2023 691.677 46.369C696.785 50.5358 700.28 56.1138 702.161 63.1032C704.043 69.9582 704.984 77.6196 704.984 86.0875V137.701C704.984 141.196 703.841 144.153 701.556 146.573C699.271 148.858 696.382 150 692.887 150C689.392 150 686.502 148.858 684.217 146.573C681.932 144.153 680.79 141.196 680.79 137.701V86.0875C680.79 81.6519 680.252 77.6868 679.177 74.1921C678.102 70.563 676.153 67.6732 673.33 65.5226C670.507 63.372 666.475 62.2967 661.233 62.2967C656.125 62.2967 651.757 63.372 648.128 65.5226C644.499 67.6732 641.743 70.563 639.862 74.1921C638.114 77.6868 637.241 81.6519 637.241 86.0875V137.701C637.241 141.196 636.098 144.153 633.813 146.573C631.528 148.858 628.638 150 625.144 150C621.649 150 618.759 148.858 616.474 146.573C614.189 144.153 613.047 141.196 613.047 137.701V86.0875C613.047 81.6519 612.509 77.6868 611.434 74.1921C610.358 70.563 608.41 67.6732 605.587 65.5226C602.764 63.372 598.732 62.2967 593.49 62.2967C588.382 62.2967 584.014 63.372 580.385 65.5226C576.756 67.6732 574 70.563 572.119 74.1921C570.371 77.6868 569.498 81.6519 569.498 86.0875V137.701C569.498 141.196 568.355 144.153 566.07 146.573C563.785 148.858 560.895 150 557.401 150C553.906 150 551.016 148.858 548.731 146.573C546.446 144.153 545.304 141.196 545.304 137.701V54.4337C545.304 50.939 546.446 48.0492 548.731 45.7642C551.016 43.3448 553.906 42.1351 557.401 42.1351C560.895 42.1351 563.785 43.3448 566.07 45.7642C568.355 48.0492 569.498 50.939 569.498 54.4337V63.1032L566.473 62.4984C567.683 60.2134 569.363 57.794 571.514 55.2402C573.664 52.5519 576.285 50.0653 579.377 47.7803C582.468 45.4953 585.896 43.6808 589.659 42.3367C593.423 40.8582 597.522 40.1189 601.958 40.1189ZM795.081 42.1351C798.576 42.1351 801.466 43.3448 803.751 45.7642C806.036 48.0492 807.178 50.939 807.178 54.4337V105.644C807.178 119.892 803.213 131.182 795.283 139.516C787.353 147.849 775.928 152.016 761.008 152.016C746.089 152.016 734.664 147.849 726.733 139.516C718.937 131.182 715.04 119.892 715.04 105.644V54.4337C715.04 50.939 716.182 48.0492 718.467 45.7642C720.752 43.3448 723.642 42.1351 727.137 42.1351C730.631 42.1351 733.521 43.3448 735.806 45.7642C738.091 48.0492 739.234 50.939 739.234 54.4337V105.644C739.234 113.843 741.048 119.959 744.677 123.991C748.306 127.889 753.75 129.838 761.008 129.838C768.401 129.838 773.912 127.889 777.541 123.991C781.17 119.959 782.984 113.843 782.984 105.644V54.4337C782.984 50.939 784.127 48.0492 786.412 45.7642C788.697 43.3448 791.587 42.1351 795.081 42.1351Z" fill="white"/>
<path d="M494.915 137.701C494.915 141.196 493.638 144.153 491.084 146.573C488.531 148.858 485.574 150 482.213 150C478.45 150 475.425 148.858 473.14 146.573C470.855 144.153 469.713 141.196 469.713 137.701V21.1669C469.713 17.6722 470.923 14.7824 473.342 12.4974C475.761 10.078 478.853 8.86831 482.616 8.86831C485.842 8.86831 488.665 10.078 491.084 12.4974C493.638 14.7824 494.915 17.6722 494.915 21.1669V137.701ZM533.301 137.701C533.301 141.196 532.091 144.153 529.672 146.573C527.387 148.858 524.497 150 521.002 150C517.642 150 514.819 148.858 512.534 146.573C510.249 144.153 509.107 141.196 509.107 137.701V13.1023C509.107 9.60758 510.249 6.71773 512.534 4.43274C514.954 2.01335 517.911 0.803652 521.406 0.803652C524.9 0.803652 527.723 2.01335 529.874 4.43274C532.159 6.71773 533.301 9.60758 533.301 13.1023V137.701Z" fill="url(#paint0_linear_2307_500)"/>
<defs>
<linearGradient id="paint0_linear_2307_500" x1="-6" y1="74" x2="821" y2="74" gradientUnits="userSpaceOnUse">
<stop stop-color="#FFFF02"/>
<stop offset="0.615387" stop-color="#F6C970"/>
</linearGradient>
</defs>
</svg>
